<svg width="55.000000" height="55.000000" viewBox="0 0 55 55" fill="none" xmlns="http://www.w3.org/2000/svg" xmlns:xlink="http://www.w3.org/1999/xlink">
	<desc>
			Created with Pixso.
	</desc>
	<defs/>
	<rect id="Сочетание 46" width="55.000000" height="55.000000" fill="#2B2A31" fill-opacity="1.000000"/>
	<path id="hs" d="M7.5 16.88L7.5 41.5L13.65 41.5L13.65 29.19L16.72 29.19L16.72 26.11L19.8 26.11L19.8 41.5L25.95 41.5L25.95 26.11L22.88 26.11L22.88 23.04L16.72 23.04L16.72 26.11L13.65 26.11L13.65 16.88L7.5 16.88ZM29.03 38.42L29.03 41.5L41.34 41.5L41.34 38.42L44.41 38.42L44.41 35.34L41.34 35.34L41.34 32.27L38.26 32.27L38.26 29.19L35.19 29.19L35.19 26.11L44.41 26.11L44.41 23.04L32.11 23.04L32.11 26.11L29.03 26.11L29.03 29.19L32.11 29.19L32.11 32.27L35.19 32.27L35.19 35.34L38.26 35.34L38.26 38.42L29.03 38.42Z" fill="#A2A2D4" fill-opacity="1.000000" fill-rule="evenodd"/>
</svg>
