<svg width="12.000000" height="12.000000" viewBox="0 0 12 12" fill="none" xmlns="http://www.w3.org/2000/svg" xmlns:xlink="http://www.w3.org/1999/xlink">
	<desc>
			Created with Pixso.
	</desc>
	<defs/>
	<path id="Форма 1" d="M7.79 0L4.2 0C4.08 0 4 0.08 4 0.2L4 3.99L0.2 3.99C0.08 3.99 0 4.08 0 4.19L0 7.79C0 7.91 0.08 7.99 0.2 7.99L4 7.99L4 11.8C4 11.91 4.08 12 4.2 12L7.79 12C7.91 12 8 11.91 8 11.8L8 7.99L11.79 7.99C11.91 7.99 12 7.91 12 7.79L12 4.19C12 4.08 11.91 3.99 11.79 3.99L8 3.99L8 0.2C8 0.08 7.91 0 7.79 0Z" fill="#A6ABEF" fill-opacity="1.000000" fill-rule="evenodd"/>
</svg>
